<svg width="1600" height="469" viewBox="0 0 1600 469" fill="none" xmlns="http://www.w3.org/2000/svg">
<path d="M68.1353 352.337L38.4129 370.943C34.5071 373.387 27.4791 372.357 24.3781 368.884L10.998 353.9C7.89704 350.427 10.4679 346.466 16.1319 345.99L59.2345 342.369C67.6789 341.66 73.9583 348.692 68.1353 352.337Z" stroke="#F5D1BE"/>
<path d="M72.47 353.296L42.7477 371.902C38.8419 374.347 31.8139 373.316 28.7129 369.843L15.3327 354.859C12.2318 351.386 14.8027 347.426 20.4667 346.95L63.5693 343.329C72.0137 342.619 78.2931 349.651 72.47 353.296Z" stroke="#F5D1BE"/>
<path d="M76.8049 354.256L47.0825 372.861C43.1768 375.306 36.1487 374.275 33.0478 370.803L19.6676 355.818C16.5667 352.346 19.1376 348.385 24.8016 347.909L67.9041 344.288C76.3486 343.579 82.6279 350.611 76.8049 354.256Z" stroke="#F5D1BE"/>
<path d="M121.317 406.584L90.0362 411.024C83.3939 411.967 78.8223 407.606 81.7968 403.165L95.7377 382.35C98.7122 377.908 107.009 376.707 110.691 380.184L128.031 396.559C131.731 400.053 127.992 405.637 121.317 406.584Z" stroke="#F5D1BE"/>
<path d="M120.484 408.003L89.4143 412.327C82.7857 413.25 78.2413 408.895 81.209 404.464L94.9577 383.935C97.9254 379.504 106.197 378.295 109.892 381.752L127.214 397.955C130.952 401.453 127.19 407.069 120.484 408.003Z" stroke="#F5D1BE"/>
<path d="M119.283 409.697L88.4854 413.876C81.8744 414.772 77.3647 410.424 80.3238 406.006L93.827 385.844C96.7861 381.426 105.025 380.207 108.737 383.638L126.031 399.621C129.82 403.123 126.03 408.782 119.283 409.697Z" stroke="#F5D1BE"/>
<rect x="0.261693" y="0.518684" width="16.0899" height="50.5886" rx="7.5" transform="matrix(1.03229 0.276239 -0.508909 0.761128 149.47 383.604)" stroke="#F5D1BE"/>
<rect x="0.261682" y="0.518715" width="16.0896" height="50.5876" rx="7.5" transform="matrix(1.03228 0.276287 -0.508917 0.761142 148.923 384.809)" stroke="#F5D1BE"/>
<rect x="0.261682" y="0.518715" width="16.0896" height="50.5876" rx="7.5" transform="matrix(1.03228 0.276287 -0.508917 0.761142 148.376 386.014)" stroke="#F5D1BE"/>
<path d="M243.704 299.374L245.107 326.006C245.317 329.999 239.322 333.974 233.415 333.756L206.873 332.778C200.966 332.561 198.716 328.282 202.486 324.435L227.625 298.781C232.742 293.56 243.419 293.953 243.704 299.374Z" stroke="#F5D1BE"/>
<path d="M247.74 297.543L249.143 324.175C249.353 328.169 243.357 332.143 237.45 331.926L210.908 330.948C205.001 330.73 202.752 326.452 206.522 322.605L231.661 296.951C236.778 291.729 247.454 292.122 247.74 297.543Z" stroke="#F5D1BE"/>
<path d="M251.775 295.713L253.178 322.345C253.389 326.338 247.393 330.313 241.486 330.095L214.944 329.117C209.037 328.899 206.787 324.621 210.557 320.774L235.696 295.12C240.814 289.898 251.49 290.292 251.775 295.713Z" stroke="#F5D1BE"/>
<rect x="0.729282" y="-0.186653" width="10.1144" height="52.6031" rx="5.05718" transform="matrix(0.547011 -0.769552 0.911552 0.396245 214.139 386.848)" stroke="#F5D1BE"/>
<rect x="0.729298" y="-0.186653" width="10.1144" height="52.6031" rx="5.05718" transform="matrix(0.547037 -0.769541 0.911559 0.396236 224.018 372.949)" stroke="#F5D1BE"/>
<rect x="0.729281" y="-0.186654" width="10.1144" height="52.6031" rx="5.05718" transform="matrix(0.54701 -0.769553 0.911552 0.396245 216.709 386.537)" stroke="#F5D1BE"/>
<rect x="0.729298" y="-0.186653" width="10.1144" height="52.6031" rx="5.05718" transform="matrix(0.547037 -0.769541 0.911559 0.396236 226.587 372.638)" stroke="#F5D1BE"/>
<rect x="0.729298" y="-0.186653" width="10.1144" height="52.6031" rx="5.05718" transform="matrix(0.547037 -0.769541 0.911559 0.396236 219.277 386.226)" stroke="#F5D1BE"/>
<rect x="0.729298" y="-0.186653" width="10.1144" height="52.6031" rx="5.05718" transform="matrix(0.547037 -0.769541 0.911559 0.396236 229.157 372.328)" stroke="#F5D1BE"/>
<path d="M342.412 301.652L326.422 321.098C322.979 325.285 314.737 325.463 311.636 321.418L297.049 302.39C293.948 298.345 298.334 293.136 304.917 293.046L335.494 292.628C341.994 292.539 345.811 297.519 342.412 301.652Z" stroke="#F5D1BE"/>
<path d="M343.488 302.886L327.506 322.156C324.049 326.324 315.832 326.489 312.738 322.454L298.351 303.687C295.257 299.651 299.616 294.452 306.185 294.344L336.554 293.841C343.085 293.733 346.925 298.743 343.488 302.886Z" stroke="#F5D1BE"/>
<path d="M344.634 304.473L328.666 323.515C325.19 327.659 317.005 327.81 313.921 323.786L299.789 305.352C296.704 301.328 301.029 296.142 307.58 296.01L337.68 295.401C344.25 295.268 348.12 300.316 344.634 304.473Z" stroke="#F5D1BE"/>
<rect x="0.784656" y="0.12812" width="15.5695" height="51.9089" rx="7.5" transform="matrix(1.04809 -0.422463 0.521218 0.678704 334.444 274.316)" stroke="#F5D1BE"/>
<rect x="0.784657" y="0.128124" width="15.5694" height="51.9087" rx="7.5" transform="matrix(1.0481 -0.42246 0.521213 0.678708 335.465 275.277)" stroke="#F5D1BE"/>
<rect x="0.784657" y="0.128124" width="15.5694" height="51.9087" rx="7.5" transform="matrix(1.0481 -0.42246 0.521213 0.678708 336.486 276.239)" stroke="#F5D1BE"/>
<path d="M508.125 279.911L478.402 298.517C474.497 300.962 467.469 299.931 464.368 296.458L450.987 281.474C447.887 278.001 450.457 274.041 456.121 273.565L499.224 269.944C507.668 269.234 513.948 276.266 508.125 279.911Z" stroke="#F5D1BE"/>
<path d="M512.46 280.871L482.737 299.476C478.831 301.921 471.803 300.89 468.702 297.417L455.322 282.433C452.221 278.961 454.792 275 460.456 274.524L503.559 270.903C512.003 270.194 518.283 277.226 512.46 280.871Z" stroke="#F5D1BE"/>
<path d="M516.794 281.83L487.072 300.436C483.166 302.881 476.138 301.85 473.037 298.377L459.657 283.393C456.556 279.92 459.127 275.959 464.791 275.484L507.894 271.862C516.338 271.153 522.617 278.185 516.794 281.83Z" stroke="#F5D1BE"/>
<rect x="0.533259" y="0.390792" width="12.0898" height="41.1907" rx="6.0449" transform="matrix(1.00981 -0.188752 0.0567103 0.970336 392.818 321.411)" stroke="#F5D1BE"/>
<rect x="0.533316" y="0.390834" width="12.0898" height="41.1907" rx="6.0449" transform="matrix(1.00981 -0.188649 0.0568174 0.970316 414.298 317.398)" stroke="#F5D1BE"/>
<rect x="0.533316" y="0.390834" width="12.0898" height="41.1907" rx="6.0449" transform="matrix(1.00981 -0.188649 0.0568173 0.970316 394.592 322.6)" stroke="#F5D1BE"/>
<rect x="0.533316" y="0.390834" width="12.0898" height="41.1907" rx="6.0449" transform="matrix(1.00981 -0.188649 0.0568174 0.970316 416.071 318.587)" stroke="#F5D1BE"/>
<rect x="0.533316" y="0.390834" width="12.0898" height="41.1907" rx="6.0449" transform="matrix(1.00981 -0.188649 0.0568173 0.970316 396.365 323.788)" stroke="#F5D1BE"/>
<rect x="0.533316" y="0.390834" width="12.0898" height="41.1907" rx="6.0449" transform="matrix(1.00981 -0.188649 0.0568174 0.970316 417.845 319.775)" stroke="#F5D1BE"/>
<path d="M561.307 334.158L530.026 338.598C523.383 339.541 518.812 335.18 521.786 330.739L535.727 309.924C538.702 305.483 546.998 304.281 550.68 307.758L568.021 324.134C571.72 327.627 567.981 333.211 561.307 334.158Z" stroke="#F5D1BE"/>
<path d="M560.474 335.577L529.404 339.902C522.775 340.824 518.231 336.469 521.198 332.038L534.947 311.51C537.915 307.079 546.186 305.869 549.882 309.326L567.203 325.53C570.942 329.027 567.18 334.644 560.474 335.577Z" stroke="#F5D1BE"/>
<path d="M559.272 337.272L528.475 341.45C521.864 342.347 517.354 337.998 520.313 333.58L533.816 313.418C536.776 309 545.014 307.781 548.726 311.212L566.021 327.196C569.809 330.697 566.019 336.356 559.272 337.272Z" stroke="#F5D1BE"/>
<rect x="0.261702" y="0.51869" width="16.0899" height="50.5886" rx="7.5" transform="matrix(1.03229 0.276246 -0.508886 0.761134 589.459 311.177)" stroke="#F5D1BE"/>
<rect x="0.261682" y="0.518715" width="16.0896" height="50.5876" rx="7.5" transform="matrix(1.03228 0.276287 -0.508917 0.761142 588.912 312.383)" stroke="#F5D1BE"/>
<rect x="0.261682" y="0.518715" width="16.0896" height="50.5876" rx="7.5" transform="matrix(1.03228 0.276287 -0.508917 0.761142 588.365 313.588)" stroke="#F5D1BE"/>
<path d="M683.694 226.948L685.097 253.58C685.307 257.574 679.311 261.548 673.404 261.331L646.862 260.353C640.955 260.135 638.706 255.857 642.476 252.01L667.615 226.356C672.732 221.134 683.408 221.527 683.694 226.948Z" stroke="#F5D1BE"/>
<path d="M687.729 225.118L689.132 251.75C689.342 255.743 683.346 259.718 677.439 259.5L650.898 258.522C644.991 258.304 642.741 254.026 646.511 250.179L671.65 224.525C676.767 219.303 687.444 219.697 687.729 225.118Z" stroke="#F5D1BE"/>
<path d="M691.765 223.287L693.168 249.919C693.378 253.913 687.382 257.887 681.475 257.67L654.933 256.691C649.026 256.474 646.777 252.195 650.547 248.348L675.686 222.695C680.803 217.473 691.479 217.866 691.765 223.287Z" stroke="#F5D1BE"/>
<rect x="0.729298" y="-0.186653" width="10.1144" height="52.6031" rx="5.05718" transform="matrix(0.547037 -0.769541 0.911559 0.396236 654.127 314.422)" stroke="#F5D1BE"/>
<rect x="0.729298" y="-0.186653" width="10.1144" height="52.6031" rx="5.05718" transform="matrix(0.547037 -0.769541 0.911559 0.396236 664.007 300.524)" stroke="#F5D1BE"/>
<rect x="0.729281" y="-0.186654" width="10.1144" height="52.6031" rx="5.05718" transform="matrix(0.54701 -0.769553 0.911552 0.396245 656.698 314.111)" stroke="#F5D1BE"/>
<rect x="0.729298" y="-0.186653" width="10.1144" height="52.6031" rx="5.05718" transform="matrix(0.547037 -0.769541 0.911559 0.396236 666.576 300.213)" stroke="#F5D1BE"/>
<rect x="0.729298" y="-0.186653" width="10.1144" height="52.6031" rx="5.05718" transform="matrix(0.547037 -0.769541 0.911559 0.396236 659.266 313.801)" stroke="#F5D1BE"/>
<rect x="0.729298" y="-0.186653" width="10.1144" height="52.6031" rx="5.05718" transform="matrix(0.547037 -0.769541 0.911559 0.396236 669.146 299.902)" stroke="#F5D1BE"/>
<path d="M782.402 229.227L766.411 248.673C762.969 252.859 754.726 253.037 751.625 248.992L737.038 229.964C733.937 225.919 738.323 220.711 744.906 220.621L775.484 220.203C781.983 220.114 785.801 225.093 782.402 229.227Z" stroke="#F5D1BE"/>
<path d="M783.478 230.461L767.496 249.73C764.039 253.898 755.821 254.064 752.728 250.028L738.341 231.261C735.247 227.226 739.606 222.027 746.175 221.918L776.544 221.416C783.075 221.308 786.915 226.317 783.478 230.461Z" stroke="#F5D1BE"/>
<path d="M784.624 232.047L768.655 251.09C765.18 255.234 756.995 255.384 753.91 251.36L739.779 232.926C736.694 228.903 741.019 223.717 747.569 223.584L777.669 222.976C784.24 222.843 788.109 227.891 784.624 232.047Z" stroke="#F5D1BE"/>
<rect x="0.784656" y="0.12812" width="15.5695" height="51.9089" rx="7.5" transform="matrix(1.04809 -0.422463 0.521218 0.678704 774.434 201.89)" stroke="#F5D1BE"/>
<rect x="0.784657" y="0.128124" width="15.5694" height="51.9087" rx="7.5" transform="matrix(1.0481 -0.42246 0.521213 0.678708 775.454 202.852)" stroke="#F5D1BE"/>
<rect x="0.784655" y="0.128124" width="15.5694" height="51.9087" rx="7.5" transform="matrix(1.0481 -0.422462 0.52121 0.67871 776.476 203.813)" stroke="#F5D1BE"/>
<path d="M1560.72 129.39L1589.35 109.986C1593.11 107.435 1600.23 108.253 1603.55 111.619L1617.9 126.144C1621.23 129.51 1618.9 133.53 1613.25 134.171L1570.26 139.05C1561.84 140.005 1555.11 133.192 1560.72 129.39Z" stroke="#F5D1BE"/>
<path d="M1556.31 128.563L1584.94 109.159C1588.71 106.608 1595.82 107.426 1599.15 110.792L1613.5 125.317C1616.82 128.683 1614.49 132.703 1608.84 133.344L1565.86 138.222C1557.43 139.178 1550.7 132.364 1556.31 128.563Z" stroke="#F5D1BE"/>
<path d="M1551.91 127.735L1580.54 108.331C1584.3 105.781 1591.41 106.599 1594.74 109.964L1609.09 124.49C1612.42 127.856 1610.09 131.875 1604.44 132.517L1561.45 137.395C1553.03 138.351 1546.3 131.537 1551.91 127.735Z" stroke="#F5D1BE"/>
<path d="M1504.01 76.9434L1535.09 71.5991C1541.69 70.4642 1546.55 74.671 1543.85 79.1809L1531.17 100.318C1528.47 104.828 1520.23 106.269 1516.32 102.916L1497.91 87.1227C1493.98 83.7532 1497.38 78.0836 1504.01 76.9434Z" stroke="#F5D1BE"/>
<path d="M1504.76 75.506L1535.63 70.2827C1542.22 69.1683 1547.05 73.3707 1544.35 77.8704L1531.86 98.7161C1529.16 103.216 1520.94 104.664 1517.02 101.331L1498.64 85.7083C1494.68 82.3365 1498.09 76.6334 1504.76 75.506Z" stroke="#F5D1BE"/>
<path d="M1505.86 73.7833L1536.47 68.7138C1543.04 67.6255 1547.83 71.8222 1545.14 76.3087L1532.87 96.7823C1530.18 101.269 1522 102.726 1518.06 99.4189L1499.72 84.0147C1495.71 80.6402 1499.15 74.8938 1505.86 73.7833Z" stroke="#F5D1BE"/>
<rect x="-0.294886" y="-0.508711" width="16.0884" height="50.5925" rx="7.5" transform="matrix(-1.05223 -0.244601 0.462454 -0.772821 1477.12 99.7263)" stroke="#F5D1BE"/>
<rect x="-0.294868" y="-0.508736" width="16.0881" height="50.5916" rx="7.5" transform="matrix(-1.05222 -0.244643 0.462485 -0.77283 1477.59 98.5097)" stroke="#F5D1BE"/>
<rect x="-0.294868" y="-0.508736" width="16.0881" height="50.5916" rx="7.5" transform="matrix(-1.05222 -0.244643 0.462485 -0.77283 1478.07 97.2935)" stroke="#F5D1BE"/>
<path d="M1388.04 187.304L1384.96 160.828C1384.5 156.858 1390.26 152.724 1396.2 152.767L1422.87 152.957C1428.8 152.999 1431.33 157.192 1427.79 161.134L1404.19 187.419C1399.39 192.769 1388.66 192.693 1388.04 187.304Z" stroke="#F5D1BE"/>
<path d="M1384.11 189.246L1381.03 162.77C1380.57 158.8 1386.33 154.666 1392.27 154.708L1418.94 154.899C1424.87 154.941 1427.39 159.134 1423.86 163.075L1400.26 189.361C1395.46 194.711 1384.73 194.635 1384.11 189.246Z" stroke="#F5D1BE"/>
<path d="M1380.17 191.187L1377.1 164.712C1376.64 160.742 1382.4 156.608 1388.34 156.65L1415.01 156.841C1420.94 156.883 1423.46 161.076 1419.93 165.017L1396.33 191.303C1391.53 196.653 1380.8 196.576 1380.17 191.187Z" stroke="#F5D1BE"/>
<rect x="-0.719442" y="0.207299" width="10.1159" height="52.5957" rx="5.05797" transform="matrix(-0.500137 0.782267 -0.938747 -0.367668 1411.84 100.613)" stroke="#F5D1BE"/>
<rect x="-0.719442" y="0.207299" width="10.1159" height="52.5957" rx="5.05797" transform="matrix(-0.500137 0.782267 -0.938747 -0.367668 1402.81 114.743)" stroke="#F5D1BE"/>
<rect x="-0.719425" y="0.2073" width="10.1159" height="52.5957" rx="5.05797" transform="matrix(-0.500109 0.782278 -0.938741 -0.367678 1409.29 100.998)" stroke="#F5D1BE"/>
<rect x="-0.719442" y="0.207299" width="10.1159" height="52.5957" rx="5.05797" transform="matrix(-0.500137 0.782267 -0.938747 -0.367668 1400.25 115.128)" stroke="#F5D1BE"/>
<rect x="-0.719442" y="0.207299" width="10.1159" height="52.5957" rx="5.05797" transform="matrix(-0.500137 0.782267 -0.938747 -0.367668 1406.73 101.383)" stroke="#F5D1BE"/>
<rect x="-0.719442" y="0.207299" width="10.1159" height="52.5957" rx="5.05797" transform="matrix(-0.500137 0.782267 -0.938747 -0.367668 1397.7 115.514)" stroke="#F5D1BE"/>
<path d="M1288.94 187.95L1303.75 168.116C1306.94 163.846 1315.19 163.425 1318.56 167.361L1334.37 185.877C1337.73 189.813 1333.66 195.128 1327.07 195.412L1296.44 196.731C1289.93 197.012 1285.79 192.166 1288.94 187.95Z" stroke="#F5D1BE"/>
<path d="M1287.79 186.753L1302.6 167.095C1305.81 162.843 1314.03 162.435 1317.39 166.362L1332.98 184.624C1336.34 188.551 1332.29 193.856 1325.72 194.158L1295.3 195.555C1288.76 195.855 1284.6 190.981 1287.79 186.753Z" stroke="#F5D1BE"/>
<path d="M1286.54 185.207L1301.35 165.776C1304.58 161.547 1312.77 161.156 1316.12 165.071L1331.44 183.008C1334.78 186.924 1330.77 192.215 1324.21 192.54L1294.08 194.035C1287.5 194.361 1283.3 189.449 1286.54 185.207Z" stroke="#F5D1BE"/>
<rect x="-0.794608" y="-0.104414" width="15.5698" height="51.9079" rx="7.5" transform="matrix(-1.02421 0.451577 -0.565007 -0.660405 1296.89 215.494)" stroke="#F5D1BE"/>
<rect x="-0.794609" y="-0.104418" width="15.5698" height="51.9078" rx="7.5" transform="matrix(-1.02421 0.451574 -0.565002 -0.66041 1295.81 214.566)" stroke="#F5D1BE"/>
<rect x="-0.794607" y="-0.104418" width="15.5698" height="51.9078" rx="7.5" transform="matrix(-1.02421 0.451576 -0.565 -0.660411 1294.72 213.639)" stroke="#F5D1BE"/>
<path d="M1124.18 214.494L1152.81 195.09C1156.57 192.539 1163.68 193.357 1167.01 196.722L1181.36 211.248C1184.69 214.614 1182.36 218.634 1176.71 219.275L1133.72 224.153C1125.3 225.109 1118.57 218.295 1124.18 214.494Z" stroke="#F5D1BE"/>
<path d="M1119.77 213.666L1148.4 194.262C1152.17 191.712 1159.28 192.529 1162.6 195.895L1176.96 210.421C1180.28 213.787 1177.95 217.806 1172.3 218.448L1129.32 223.326C1120.89 224.282 1114.16 217.468 1119.77 213.666Z" stroke="#F5D1BE"/>
<path d="M1115.37 212.839L1144 193.435C1147.76 190.884 1154.87 191.702 1158.2 195.068L1172.55 209.593C1175.88 212.959 1173.54 216.979 1167.89 217.62L1124.91 222.499C1116.49 223.454 1109.76 216.641 1115.37 212.839Z" stroke="#F5D1BE"/>
<rect x="-0.559195" y="-0.372886" width="12.0844" height="41.2288" rx="6.04221" transform="matrix(-1.0009 0.217841 -0.117495 -0.963612 1235.99 169.267)" stroke="#F5D1BE"/>
<rect x="-0.559254" y="-0.372925" width="12.0844" height="41.2288" rx="6.04221" transform="matrix(-1.00091 0.217739 -0.117601 -0.963589 1214.71 173.897)" stroke="#F5D1BE"/>
<rect x="-0.559254" y="-0.372925" width="12.0844" height="41.2288" rx="6.04221" transform="matrix(-1.00091 0.217739 -0.117601 -0.963589 1234.14 168.136)" stroke="#F5D1BE"/>
<rect x="-0.559254" y="-0.372925" width="12.0844" height="41.2288" rx="6.04221" transform="matrix(-1.00091 0.217739 -0.117601 -0.963589 1212.86 172.766)" stroke="#F5D1BE"/>
<rect x="-0.559254" y="-0.372925" width="12.0844" height="41.2288" rx="6.04221" transform="matrix(-1.00091 0.217739 -0.117601 -0.963589 1232.29 167.005)" stroke="#F5D1BE"/>
<rect x="-0.559254" y="-0.372925" width="12.0844" height="41.2288" rx="6.04221" transform="matrix(-1.00091 0.217739 -0.117601 -0.963589 1211.01 171.635)" stroke="#F5D1BE"/>
<path d="M1067.47 162.047L1098.55 156.703C1105.15 155.568 1110.01 159.775 1107.3 164.285L1094.63 185.422C1091.93 189.932 1083.69 191.373 1079.78 188.019L1061.37 172.227C1057.44 168.857 1060.84 163.187 1067.47 162.047Z" stroke="#F5D1BE"/>
<path d="M1068.22 160.61L1099.09 155.387C1105.68 154.272 1110.51 158.474 1107.81 162.974L1095.31 183.82C1092.62 188.319 1084.4 189.768 1080.48 186.435L1062.1 170.812C1058.13 167.44 1061.55 161.737 1068.22 160.61Z" stroke="#F5D1BE"/>
<path d="M1069.32 158.887L1099.93 153.818C1106.5 152.729 1111.29 156.926 1108.6 161.412L1096.33 181.886C1093.64 186.373 1085.46 187.829 1081.52 184.523L1063.18 169.118C1059.16 165.744 1062.61 159.998 1069.32 158.887Z" stroke="#F5D1BE"/>
<rect x="-0.294886" y="-0.508711" width="16.0884" height="50.5925" rx="7.5" transform="matrix(-1.05223 -0.244601 0.462454 -0.772821 1040.58 184.83)" stroke="#F5D1BE"/>
<rect x="-0.294868" y="-0.508736" width="16.0881" height="50.5916" rx="7.5" transform="matrix(-1.05222 -0.244643 0.462485 -0.77283 1041.05 183.613)" stroke="#F5D1BE"/>
<rect x="-0.294868" y="-0.508736" width="16.0881" height="50.5916" rx="7.5" transform="matrix(-1.05222 -0.244643 0.462485 -0.77283 1041.52 182.397)" stroke="#F5D1BE"/>
<path d="M951.495 272.407L948.421 245.932C947.96 241.962 953.722 237.828 959.657 237.87L986.326 238.061C992.262 238.103 994.785 242.296 991.247 246.237L967.652 272.523C962.849 277.873 952.121 277.796 951.495 272.407Z" stroke="#F5D1BE"/>
<path d="M947.564 274.349L944.49 247.874C944.029 243.904 949.791 239.77 955.727 239.812L982.395 240.003C988.331 240.045 990.854 244.238 987.316 248.179L963.721 274.465C958.918 279.815 948.19 279.738 947.564 274.349Z" stroke="#F5D1BE"/>
<path d="M943.633 276.291L940.559 249.815C940.099 245.845 945.86 241.712 951.796 241.754L978.465 241.944C984.4 241.987 986.923 246.18 983.385 250.121L959.79 276.406C954.987 281.757 944.259 281.68 943.633 276.291Z" stroke="#F5D1BE"/>
<rect x="-0.719442" y="0.207299" width="10.1159" height="52.5957" rx="5.05797" transform="matrix(-0.500137 0.782267 -0.938747 -0.367668 975.303 185.717)" stroke="#F5D1BE"/>
<rect x="-0.719442" y="0.207299" width="10.1159" height="52.5957" rx="5.05797" transform="matrix(-0.500137 0.782267 -0.938747 -0.367668 966.269 199.847)" stroke="#F5D1BE"/>
<rect x="-0.719425" y="0.2073" width="10.1159" height="52.5957" rx="5.05797" transform="matrix(-0.500109 0.782278 -0.938741 -0.367678 972.745 186.102)" stroke="#F5D1BE"/>
<rect x="-0.719442" y="0.207299" width="10.1159" height="52.5957" rx="5.05797" transform="matrix(-0.500137 0.782267 -0.938747 -0.367668 963.713 200.232)" stroke="#F5D1BE"/>
<rect x="-0.719442" y="0.207299" width="10.1159" height="52.5957" rx="5.05797" transform="matrix(-0.500137 0.782267 -0.938747 -0.367668 970.19 186.487)" stroke="#F5D1BE"/>
<rect x="-0.719442" y="0.207299" width="10.1159" height="52.5957" rx="5.05797" transform="matrix(-0.500137 0.782267 -0.938747 -0.367668 961.156 200.617)" stroke="#F5D1BE"/>
<path d="M852.401 273.054L867.213 253.22C870.402 248.95 878.654 248.529 882.016 252.465L897.83 270.98C901.192 274.916 897.121 280.232 890.528 280.516L859.901 281.835C853.391 282.115 849.252 277.27 852.401 273.054Z" stroke="#F5D1BE"/>
<path d="M851.245 271.857L866.06 252.199C869.265 247.947 877.492 247.539 880.846 251.466L896.443 269.727C899.797 273.654 895.753 278.959 889.175 279.261L858.762 280.658C852.222 280.959 848.059 276.084 851.245 271.857Z" stroke="#F5D1BE"/>
<path d="M849.997 270.311L864.813 250.879C868.037 246.65 876.233 246.259 879.577 250.175L894.897 268.112C898.242 272.027 894.231 277.319 887.673 277.644L857.536 279.139C850.958 279.465 846.763 274.553 849.997 270.311Z" stroke="#F5D1BE"/>
<rect x="-0.794608" y="-0.104414" width="15.5698" height="51.9079" rx="7.5" transform="matrix(-1.02421 0.451577 -0.565007 -0.660405 860.351 300.597)" stroke="#F5D1BE"/>
<rect x="-0.794609" y="-0.104418" width="15.5698" height="51.9078" rx="7.5" transform="matrix(-1.02421 0.451574 -0.565002 -0.66041 859.268 299.67)" stroke="#F5D1BE"/>
<rect x="-0.794607" y="-0.104418" width="15.5698" height="51.9078" rx="7.5" transform="matrix(-1.02421 0.451576 -0.565 -0.660411 858.183 298.743)" stroke="#F5D1BE"/>
</svg>
