<svg width="704" height="695" viewBox="0 0 704 695" fill="none" xmlns="http://www.w3.org/2000/svg">
<rect x="67.5" y="69.5" width="569" height="567" stroke="#789C8D"/>
<rect x="67.5" y="69.5" width="95" height="625" stroke="#789C8D"/>
<rect x="257.5" y="0.5" width="95" height="636" stroke="#789C8D"/>
<rect x="447.5" y="69.5" width="95" height="625" stroke="#789C8D"/>
<rect x="636.5" y="161.5" width="95" height="636" transform="rotate(90 636.5 161.5)" stroke="#789C8D"/>
<rect x="703.5" y="256.5" width="95" height="636" transform="rotate(90 703.5 256.5)" stroke="#789C8D"/>
<rect x="636.5" y="351.5" width="95" height="569" transform="rotate(90 636.5 351.5)" stroke="#789C8D"/>
<rect x="703.5" y="446.5" width="95" height="636" transform="rotate(90 703.5 446.5)" stroke="#789C8D"/>
<rect x="636.5" y="541.5" width="95" height="636" transform="rotate(90 636.5 541.5)" stroke="#789C8D"/>
<path d="M573.634 125.299C580.435 124.082 585.125 131.928 580.832 137.342L500.029 239.242C496.77 243.353 490.406 242.933 487.715 238.43L440.503 159.442C437.811 154.939 440.455 149.135 445.619 148.211L573.634 125.299Z" stroke="#EA5959"/>
<path d="M582.117 128.299C588.918 127.082 593.608 134.928 589.315 140.342L508.511 242.242C505.252 246.353 498.888 245.933 496.197 241.43L448.985 162.442C446.294 157.939 448.938 152.135 454.101 151.211L582.117 128.299Z" stroke="#EA5959"/>
<path d="M590.599 131.299C597.4 130.082 602.09 137.928 597.797 143.342L516.994 245.242C513.735 249.353 507.371 248.933 504.68 244.43L457.468 165.442C454.776 160.939 457.42 155.135 462.584 154.211L590.599 131.299Z" stroke="#EA5959"/>
<rect x="339.592" y="289.519" width="32.5238" height="107" rx="7.5" transform="rotate(-11.8911 339.592 289.519)" stroke="#EA5959"/>
<rect x="392.899" y="278.294" width="32.5238" height="107" rx="7.5" transform="rotate(-11.8911 392.899 278.294)" stroke="#EA5959"/>
<rect x="344.592" y="292.519" width="32.5238" height="107" rx="7.5" transform="rotate(-11.8911 344.592 292.519)" stroke="#EA5959"/>
<rect x="397.899" y="281.294" width="32.5238" height="107" rx="7.5" transform="rotate(-11.8911 397.899 281.294)" stroke="#EA5959"/>
<rect x="349.592" y="295.519" width="32.5238" height="107" rx="7.5" transform="rotate(-11.8911 349.592 295.519)" stroke="#EA5959"/>
<rect x="402.899" y="284.294" width="32.5238" height="107" rx="7.5" transform="rotate(-11.8911 402.899 284.294)" stroke="#EA5959"/>
<path d="M468.865 539.945C474.512 541.662 476.219 548.794 471.908 552.656L409.374 608.676C405.142 612.467 398.258 610.255 396.922 604.675L377.546 523.747C376.21 518.167 381.411 513.352 386.955 515.038L468.865 539.945Z" stroke="#EA5959"/>
<path d="M470.044 543.391C475.722 545.094 477.44 552.267 473.094 556.129L410.567 611.695C406.33 615.461 399.471 613.243 398.138 607.675L378.968 527.608C377.635 522.04 382.811 517.229 388.348 518.89L470.044 543.391Z" stroke="#EA5959"/>
<path d="M471.146 547.687C476.865 549.371 478.595 556.598 474.205 560.46L411.692 615.446C407.448 619.18 400.619 616.953 399.29 611.401L380.383 532.432C379.054 526.88 384.198 522.075 389.727 523.703L471.146 547.687Z" stroke="#EA5959"/>
<rect x="0.608018" y="0.392997" width="34.7069" height="102.122" rx="7.5" transform="matrix(0.982483 -0.18635 0.233553 0.972344 466.043 491.871)" stroke="#EA5959"/>
<rect x="0.608018" y="0.392997" width="34.7069" height="102.122" rx="7.5" transform="matrix(0.982483 -0.18635 0.233553 0.972344 467.183 494.716)" stroke="#EA5959"/>
<rect x="0.608018" y="0.392997" width="34.7069" height="102.122" rx="7.5" transform="matrix(0.982483 -0.18635 0.233553 0.972344 468.323 497.561)" stroke="#EA5959"/>
<path d="M170.905 115.523L144.829 104.189C140.777 102.428 136.064 104.285 134.303 108.337L122.969 134.413" stroke="#EA5959" stroke-linecap="round"/>
<path d="M233.84 182.605L245.174 156.528C246.935 152.476 245.078 147.764 241.026 146.002L214.95 134.668" stroke="#EA5959" stroke-linecap="round"/>
<path d="M166.759 245.539L192.835 256.873C196.887 258.635 201.6 256.778 203.361 252.726L214.695 226.649" stroke="#EA5959" stroke-linecap="round"/>
<path d="M103.824 178.458L92.4898 204.534C90.7286 208.586 92.5856 213.299 96.6377 215.06L122.714 226.395" stroke="#EA5959" stroke-linecap="round"/>
<path d="M173.052 120.971L146.976 109.636C142.924 107.875 138.211 109.732 136.45 113.784L125.115 139.861" stroke="#EA5959" stroke-linecap="round"/>
<path d="M235.986 188.052L247.321 161.976C249.082 157.924 247.225 153.211 243.173 151.45L217.097 140.115" stroke="#EA5959" stroke-linecap="round"/>
<path d="M168.905 250.986L194.982 262.321C199.034 264.082 203.746 262.225 205.507 258.173L216.842 232.097" stroke="#EA5959" stroke-linecap="round"/>
<path d="M105.971 183.905L94.6364 209.982C92.8751 214.034 94.7322 218.746 98.7842 220.508L124.861 231.842" stroke="#EA5959" stroke-linecap="round"/>
<path d="M175.958 126.748L149.882 115.414C145.83 113.653 141.117 115.51 139.356 119.562L128.021 145.638" stroke="#EA5959" stroke-linecap="round"/>
<path d="M238.892 193.829L250.227 167.753C251.988 163.701 250.131 158.988 246.079 157.227L220.003 145.893" stroke="#EA5959" stroke-linecap="round"/>
<path d="M171.811 256.764L197.887 268.098C201.94 269.86 206.652 268.003 208.413 263.95L219.748 237.874" stroke="#EA5959" stroke-linecap="round"/>
<path d="M108.877 189.683L97.5424 215.759C95.7811 219.811 97.6381 224.524 101.69 226.285L127.766 237.619" stroke="#EA5959" stroke-linecap="round"/>
</svg>
