<svg xmlns="http://www.w3.org/2000/svg" fill="none" viewBox="33.18 23.06 59.46 62.36">
<path d="M37.3694 42.4139C37.2967 42.1037 37.2418 41.7898 37.2036 41.4736L36.7693 41.6785C36.6844 40.9744 36.6773 40.2578 36.7396 39.5427L37.1757 39.4725C37.2363 38.7778 37.3668 38.0844 37.5586 37.4067L37.1484 37.3367C37.3566 36.601 37.6323 35.8831 37.9657 35.1996L38.3251 35.4025C38.6394 34.7581 39.0083 34.1462 39.4222 33.5827L39.1348 33.2604C39.5738 32.6627 40.0604 32.116 40.5847 31.6369L40.7819 32.0601C41.2648 31.6187 41.7814 31.2388 42.323 30.9347L42.2303 30.4352C42.7879 30.1221 43.3704 29.8842 43.9695 29.7355L43.9525 30.2792C44.2215 30.2124 44.4945 30.1647 44.7705 30.1377L45.6433 30.0521L45.713 29.4992L47.4586 29.3281L47.3889 29.8809L49.1345 29.7098L49.2042 29.1569L50.9498 28.9858L50.8801 29.5387L52.6257 29.3675L52.6954 28.8146L54.441 28.6435L54.3713 29.1964L56.1169 29.0252L56.1866 28.4723L57.9322 28.3012L57.8625 28.8541L59.6081 28.6829L59.6778 28.1301L61.4234 27.9589L61.3537 28.5118L63.0993 28.3407L63.169 27.7878L64.9146 27.6166L64.8449 28.1695L66.5905 27.9984L66.6602 27.4455L68.4058 27.2743L68.3361 27.8272L70.0817 27.6561L70.1514 27.1032L71.897 26.9321L71.8272 27.4849L73.5728 27.3138L73.6426 26.7609L75.3882 26.5898L75.3184 27.1427L77.064 26.9715L77.1338 26.4186L78.8794 26.2475L78.8096 26.8004L80.5552 26.6292L80.625 26.0763L82.3706 25.9052L82.3008 26.4581L83.1736 26.3725C83.4297 26.3474 83.6776 26.3404 83.9173 26.3504L84.0334 25.7961C84.5693 25.8184 85.0681 25.9204 85.5274 26.0916L85.3176 26.6272C85.7686 26.7954 86.1788 27.0349 86.5457 27.3348L86.8403 26.848C87.2429 27.177 87.5968 27.5738 87.8989 28.0256L87.5371 28.4376C87.8235 28.8659 88.0605 29.3472 88.2451 29.8691L88.6534 29.551C88.8504 30.1082 88.9911 30.7084 89.0722 31.3382L88.6385 31.5478C88.7145 32.1378 88.7349 32.7549 88.6969 33.3865L89.1344 33.2975C89.0943 33.9637 88.9933 34.6457 88.8283 35.3304L88.4102 35.2903C88.2598 35.9144 88.0526 36.5409 87.7859 37.1588L88.1608 37.3279C87.8892 37.9574 87.5598 38.5784 87.1703 39.1806L86.8574 38.8953C86.6832 39.1646 86.4959 39.4304 86.2952 39.6915L85.611 40.5818L85.8888 40.9168L84.5204 42.6974L84.2426 42.3623L82.8741 44.1428L83.152 44.4779L81.7836 46.2584L81.5057 45.9233L80.1373 47.7039L80.4152 48.0389L79.0467 49.8194L78.7689 49.4844L77.4005 51.2649L77.6783 51.5999L76.3099 53.3805L76.0321 53.0454L74.6637 54.8259L74.9415 55.161L73.5731 56.9415L73.2953 56.6064L71.9269 58.387L72.2047 58.722L70.8363 60.5025L70.5584 60.1675L69.19 61.948L69.4679 62.283L68.0995 64.0636L67.8216 63.7285L66.4532 65.509L66.7311 65.8441L65.3626 67.6246L65.0848 67.2895L63.7164 69.0701L63.9942 69.4051L62.6258 71.1856L62.348 70.8506L60.9796 72.6311L61.2574 72.9661L59.889 74.7467L59.6112 74.4116L58.2427 76.1921L58.5206 76.5272L57.1522 78.3077L56.8743 77.9726L56.1901 78.8629C55.9738 79.1444 55.7512 79.4073 55.5238 79.6517L55.7587 80.0375C55.2523 80.5817 54.7217 81.0414 54.179 81.4179L54.0438 80.945C53.5167 81.3107 52.9771 81.5927 52.4375 81.7922L52.4638 82.3225C51.878 82.5391 51.2926 82.6643 50.7217 82.6995L50.8038 82.1456C50.2656 82.1788 49.7411 82.1269 49.244 81.991L49.0596 82.5348C48.5323 82.3907 48.0337 82.1581 47.5781 81.8384L47.8547 81.338C47.435 81.0435 47.0545 80.6703 46.7256 80.2197L46.3725 80.6442C46.0339 80.1804 45.7462 79.6396 45.5217 79.0231L45.9285 78.7008C45.8276 78.4238 45.7402 78.1303 45.6675 77.8201L45.437 76.8366L45.0133 77.1021L44.5523 75.1351L44.976 74.8696L44.515 72.9026L44.0913 73.1681L43.6303 71.2011L44.054 70.9356L43.593 68.9686L43.1693 69.2341L42.7083 67.2671L43.132 67.0015L42.671 65.0345L42.2473 65.3001L41.7863 63.333L42.21 63.0675L41.749 61.1005L41.3253 61.366L40.8643 59.399L41.288 59.1335L40.827 57.1665L40.4033 57.432L39.9423 55.465L40.3659 55.1995L39.9049 53.2325L39.4813 53.498L39.0203 51.531L39.4439 51.2655L38.9829 49.2984L38.5593 49.564L38.0983 47.597L38.5219 47.3314L38.0609 45.3644L37.6373 45.6299L37.1762 43.6629L37.5999 43.3974L37.3694 42.4139Z" stroke="#EA5959" stroke-dasharray="2 2"/>
<path d="M40.3787 44.6314C40.306 44.3212 40.2511 44.0073 40.2129 43.6911L39.7786 43.896C39.6936 43.1919 39.6865 42.4753 39.7489 41.7602L40.185 41.6901C40.2455 40.9954 40.3761 40.3019 40.5678 39.6242L40.1576 39.5543C40.3659 38.8185 40.6416 38.1006 40.975 37.4171L41.3344 37.62C41.6487 36.9756 42.0176 36.3637 42.4315 35.8002L42.1441 35.478C42.5831 34.8803 43.0697 34.3336 43.594 33.8544L43.7912 34.2776C44.274 33.8363 44.7907 33.4563 45.3323 33.1522L45.2396 32.6527C45.7972 32.3396 46.3797 32.1017 46.9787 31.953L46.9618 32.4967C47.2308 32.43 47.5038 32.3823 47.7798 32.3552L48.6526 32.2696L48.7223 31.7167L50.4679 31.5456L50.3982 32.0985L52.1438 31.9273L52.2135 31.3744L53.9591 31.2033L53.8894 31.7562L55.635 31.5851L55.7047 31.0322L57.4503 30.861L57.3806 31.4139L59.1262 31.2428L59.1959 30.6899L60.9415 30.5187L60.8718 31.0716L62.6173 30.9005L62.6871 30.3476L64.4327 30.1764L64.3629 30.7293L66.1085 30.5582L66.1783 30.0053L67.9239 29.8342L67.8541 30.387L69.5997 30.2159L69.6695 29.663L71.4151 29.4919L71.3453 30.0448L73.0909 29.8736L73.1607 29.3207L74.9063 29.1496L74.8365 29.7025L76.5821 29.5313L76.6519 28.9784L78.3975 28.8073L78.3277 29.3602L80.0733 29.189L80.1431 28.6362L81.8886 28.465L81.8189 29.0179L83.5645 28.8468L83.6342 28.2939L85.3798 28.1227L85.3101 28.6756L86.1829 28.59C86.439 28.5649 86.6869 28.558 86.9265 28.5679L87.0427 28.0137C87.5786 28.0359 88.0774 28.1379 88.5367 28.3092L88.3269 28.8447C88.7779 29.0129 89.188 29.2524 89.555 29.5523L89.8496 29.0656C90.2522 29.3945 90.606 29.7914 90.9082 30.2431L90.5463 30.6551C90.8327 31.0834 91.0698 31.5647 91.2543 32.0867L91.6627 31.7686C91.8597 32.3257 92.0003 32.9259 92.0815 33.5557L91.6478 33.7653C91.7238 34.3553 91.7442 34.9724 91.7062 35.604L92.1437 35.515C92.1036 36.1813 92.0026 36.8632 91.8375 37.5479L91.4195 37.5078C91.2691 38.1319 91.0619 38.7584 90.7952 39.3763L91.1701 39.5455C90.8984 40.1749 90.5691 40.7959 90.1796 41.3981L89.8666 41.1128C89.6925 41.3821 89.5052 41.6479 89.3044 41.9091L88.6202 42.7993L88.8981 43.1344L87.5297 44.9149L87.2518 44.5798L85.8834 46.3604L86.1613 46.6954L84.7928 48.4759L84.515 48.1409L83.1466 49.9214L83.4244 50.2564L82.056 52.037L81.7782 51.7019L80.4098 53.4824L80.6876 53.8175L79.3192 55.598L79.0414 55.2629L77.673 57.0435L77.9508 57.3785L76.5824 59.159L76.3045 58.824L74.9361 60.6045L75.214 60.9395L73.8456 62.7201L73.5677 62.385L72.1993 64.1655L72.4772 64.5006L71.1087 66.2811L70.8309 65.946L69.4625 67.7266L69.7403 68.0616L68.3719 69.8421L68.0941 69.5071L66.7257 71.2876L67.0035 71.6226L65.6351 73.4032L65.3573 73.0681L63.9888 74.8486L64.2667 75.1837L62.8983 76.9642L62.6204 76.6291L61.252 78.4097L61.5299 78.7447L60.1615 80.5252L59.8836 80.1902L59.1994 81.0804C58.983 81.362 58.7605 81.6248 58.5331 81.8692L58.7679 82.2551C58.2615 82.7992 57.731 83.2589 57.1883 83.6354L57.0531 83.1625C56.5259 83.5283 55.9863 83.8103 55.4468 84.0097L55.4731 84.5401C54.8873 84.7566 54.3019 84.8818 53.731 84.917L53.8131 84.3631C53.2749 84.3964 52.7504 84.3444 52.2532 84.2086L52.0688 84.7523C51.5415 84.6082 51.043 84.3756 50.5874 84.0559L50.864 83.5555C50.4443 83.261 50.0638 82.8879 49.7349 82.4373L49.3818 82.8618C49.0431 82.3979 48.7555 81.8571 48.531 81.2406L48.9378 80.9183C48.8369 80.6414 48.7495 80.3478 48.6768 80.0376L48.4463 79.0541L48.0226 79.3197L47.5616 77.3526L47.9853 77.0871L47.5243 75.1201L47.1006 75.3856L46.6396 73.4186L47.0633 73.1531L46.6023 71.1861L46.1786 71.4516L45.7176 69.4846L46.1413 69.2191L45.6802 67.2521L45.2566 67.5176L44.7956 65.5506L45.2192 65.2851L44.7582 63.318L44.3346 63.5836L43.8736 61.6166L44.2972 61.351L43.8362 59.384L43.4126 59.6495L42.9516 57.6825L43.3752 57.417L42.9142 55.45L42.4906 55.7155L42.0295 53.7485L42.4532 53.483L41.9922 51.516L41.5685 51.7815L41.1075 49.8145L41.5312 49.549L41.0702 47.5819L40.6465 47.8475L40.1855 45.8805L40.6092 45.6149L40.3787 44.6314Z" stroke="#EA5959" stroke-dasharray="2 2"/>
<path d="M34.3539 40.1477C34.281 39.8376 34.2259 39.5237 34.1876 39.2075L33.7531 39.4121C33.6679 38.7082 33.6605 37.9917 33.7227 37.2768L34.1591 37.2069C34.2194 36.5124 34.3498 35.8192 34.5414 35.1417L34.1309 35.0716C34.339 34.3361 34.6148 33.6185 34.9481 32.9354L35.3078 33.1385C35.6221 32.4944 35.9911 31.8828 36.4051 31.3197L36.1173 30.9973C36.5565 30.4 37.0432 29.8537 37.5677 29.375L37.7651 29.7982C38.2482 29.3572 38.765 28.9776 39.3069 28.6739L39.214 28.1745C39.7718 27.8618 40.3546 27.6243 40.954 27.476L40.9372 28.0195C41.2064 27.9529 41.4795 27.9054 41.7557 27.8785L42.6288 27.7935L42.6984 27.2408L44.4446 27.0707L44.375 27.6234L46.1212 27.4534L46.1908 26.9007L47.937 26.7306L47.8674 27.2833L49.6136 27.1133L49.6832 26.5606L51.4294 26.3905L51.3598 26.9432L53.106 26.7732L53.1756 26.2205L54.9218 26.0504L54.8522 26.6031L56.5984 26.4331L56.668 25.8804L58.4142 25.7103L58.3446 26.263L60.0908 26.093L60.1604 25.5403L61.9066 25.3702L61.837 25.9229L63.5832 25.7529L63.6528 25.2002L65.399 25.0301L65.3294 25.5828L67.0756 25.4128L67.1452 24.8601L68.8914 24.69L68.8218 25.2427L70.568 25.0727L70.6376 24.52L72.3838 24.3499L72.3141 24.9026L74.0603 24.7326L74.1299 24.1799L75.8761 24.0098L75.8065 24.5625L77.5527 24.3925L77.6223 23.8398L79.3685 23.6697L79.2989 24.2224L80.172 24.1374C80.4282 24.1125 80.6763 24.1056 80.9161 24.1157L81.0322 23.5617C81.5684 23.5842 82.0675 23.6864 82.5272 23.858L82.3175 24.3933C82.7687 24.5616 83.1793 24.8014 83.5465 25.1013L83.8411 24.6149C84.2441 24.944 84.5983 25.3409 84.9008 25.7927L84.5389 26.2044C84.8256 26.6327 85.063 27.1141 85.2478 27.636L85.6563 27.3182C85.8536 27.8753 85.9946 28.4754 86.076 29.1051L85.6421 29.3144C85.7184 29.9043 85.739 30.5212 85.7012 31.1526L86.1389 31.0639C86.099 31.7299 85.9982 32.4116 85.8333 33.0961L85.415 33.0558C85.2647 33.6797 85.0576 34.3058 84.7909 34.9235L85.1661 35.0928C84.8945 35.7219 84.5652 36.3425 84.1756 36.9444L83.8624 36.659C83.6882 36.9281 83.5009 37.1937 83.3001 37.4547L82.616 38.3442L82.8941 38.6793L81.5258 40.4582L81.2477 40.1231L79.8794 41.902L80.1575 42.2371L78.7892 44.016L78.5111 43.6808L77.1428 45.4597L77.4209 45.7948L76.0526 47.5737L75.7745 47.2386L74.4062 49.0175L74.6843 49.3526L73.3161 51.1315L73.0379 50.7964L71.6696 52.5753L71.9478 52.9104L70.5795 54.6893L70.3013 54.3542L68.933 56.1331L69.2112 56.4682L67.8429 58.247L67.5647 57.9119L66.1964 59.6908L66.4746 60.0259L65.1063 61.8048L64.8281 61.4697L63.4598 63.2486L63.738 63.5837L62.3697 65.3626L62.0915 65.0275L60.7232 66.8064L61.0014 67.1415L59.6331 68.9204L59.3549 68.5853L57.9867 70.3641L58.2648 70.6993L56.8965 72.4781L56.6184 72.143L55.2501 73.9219L55.5282 74.257L54.1599 76.0359L53.8818 75.7008L53.1976 76.5902C52.9812 76.8716 52.7586 77.1343 52.5311 77.3785L52.7663 77.7644C52.2597 78.3081 51.729 78.7674 51.1861 79.1436L51.0506 78.6707C50.5232 79.0361 49.9834 79.3178 49.4435 79.5169L49.47 80.0471C48.8839 80.2633 48.2981 80.3881 47.7269 80.4231L47.8089 79.8694C47.2703 79.9023 46.7455 79.8501 46.2479 79.714L46.0636 80.2575C45.5359 80.1132 45.0369 79.8804 44.5809 79.5605L44.8575 79.0604C44.4375 78.7658 44.0566 78.3924 43.7272 77.9418L43.3741 78.366C43.0351 77.9021 42.7471 77.3612 42.5221 76.7447L42.9291 76.4227C42.8281 76.1458 42.7405 75.8523 42.6676 75.5421L42.4367 74.559L42.0128 74.8242L41.551 72.8578L41.9748 72.5926L41.5129 70.6262L41.0891 70.8915L40.6272 68.9251L41.0511 68.6599L40.5892 66.6935L40.1653 66.9588L39.7035 64.9924L40.1273 64.7272L39.6654 62.7608L39.2416 63.026L38.7797 61.0597L39.2036 60.7945L38.7417 58.8281L38.3178 59.0933L37.856 57.127L38.2798 56.8617L37.8179 54.8954L37.3941 55.1606L36.9322 53.1943L37.3561 52.929L36.8942 50.9627L36.4703 51.2279L36.0085 49.2616L36.4323 48.9963L35.9704 47.03L35.5466 47.2952L35.0847 45.3288L35.5086 45.0636L35.0467 43.0973L34.6228 43.3625L34.1609 41.3961L34.5848 41.1309L34.3539 40.1477Z" stroke="#EA5959" stroke-dasharray="2 2"/>
<path d="M59.56 28.44C60.4773 28.44 61.2773 28.408 61.96 28.344L61.8 28.984C61.096 29.176 60.456 29.5173 59.88 30.008C59.3253 30.4773 58.696 31.2667 57.992 32.376L45.768 51.16L44.968 51.128L44.136 51.16L41.608 31.032C41.5227 30.328 41.3093 29.816 40.968 29.496C40.648 29.176 40.3067 29.0053 39.944 28.984L40.104 28.344C41.192 28.408 42.728 28.44 44.712 28.44C46.8667 28.44 48.4987 28.408 49.608 28.344L49.448 28.984C48.488 29.0267 47.816 29.176 47.432 29.432C47.048 29.6667 46.856 30.1573 46.856 30.904C46.856 31.224 46.8667 31.48 46.888 31.672L48.488 45.848L56.904 32.92C57.544 31.9387 57.864 31.1493 57.864 30.552C57.864 30.04 57.64 29.6667 57.192 29.432C56.744 29.176 56.0827 29.0267 55.208 28.984L55.368 28.344C56.2 28.408 57.5973 28.44 59.56 28.44ZM80.476 28.44C83.5053 28.44 85.6707 28.408 86.972 28.344C86.3747 29.9653 85.9693 31.224 85.756 32.12C85.6493 32.5893 85.5107 33.2507 85.34 34.104H84.636C84.6573 33.8267 84.668 33.4427 84.668 32.952C84.668 31.5227 84.4013 30.52 83.868 29.944C83.3347 29.368 82.4173 29.08 81.116 29.08H80.124C79.3773 29.08 78.812 29.144 78.428 29.272C78.0653 29.3787 77.7667 29.6133 77.532 29.976C77.3187 30.3387 77.1053 30.9253 76.892 31.736L74.876 39.288H76.06C77.1267 39.288 78.0227 38.9147 78.748 38.168C79.4733 37.4213 80.0387 36.5147 80.444 35.448H81.18C80.7747 36.664 80.444 37.784 80.188 38.808L79.996 39.608C79.74 40.6107 79.4307 41.9973 79.068 43.768H78.364C78.3853 43.6187 78.396 43.384 78.396 43.064C78.396 40.9733 77.5 39.928 75.708 39.928H74.716L72.668 47.608C72.476 48.2693 72.38 48.792 72.38 49.176C72.38 49.624 72.5293 49.9227 72.828 50.072C73.148 50.2 73.7027 50.264 74.492 50.264H75.676C76.828 50.264 77.7987 50.0933 78.588 49.752C79.3773 49.3893 80.0813 48.8027 80.7 47.992C81.3187 47.1813 81.948 46.0507 82.588 44.6H83.324C83.0893 45.2187 82.8547 45.9867 82.62 46.904C82.2573 48.1627 81.98 49.528 81.788 51C80.3373 50.936 77.916 50.904 74.524 50.904C69.916 50.904 66.4493 50.936 64.124 51L64.284 50.36C65.052 50.3173 65.6173 50.232 65.98 50.104C66.364 49.976 66.6733 49.7307 66.908 49.368C67.1427 49.0053 67.3667 48.4187 67.58 47.608L71.804 31.736C71.9747 31.0107 72.06 30.4987 72.06 30.2C72.06 29.7307 71.9 29.4213 71.58 29.272C71.2813 29.1227 70.7267 29.0267 69.916 28.984L70.076 28.344C72.4013 28.408 75.868 28.44 80.476 28.44ZM60.872 55.344C60.168 57.1787 59.4853 59.632 58.824 62.704H58.12C58.2907 61.7227 58.376 60.88 58.376 60.176C58.376 59.1947 58.1947 58.384 57.832 57.744C57.0853 56.3573 55.8267 55.664 54.056 55.664C52.3493 55.664 50.7173 56.4213 49.16 57.936C47.624 59.4293 46.3867 61.3813 45.448 63.792C44.5307 66.1813 44.072 68.6347 44.072 71.152C44.072 73.264 44.4453 74.8533 45.192 75.92C45.96 76.9653 47.0267 77.488 48.392 77.488C49.2027 77.488 50.0453 77.3067 50.92 76.944C51.7947 76.56 52.552 76.0373 53.192 75.376C53.7467 74.7787 54.2267 74.1173 54.632 73.392C55.0587 72.6453 55.5387 71.6213 56.072 70.32H56.776C55.7733 74.0107 55.144 76.5707 54.888 78H54.184C54.248 77.552 54.28 77.1893 54.28 76.912C54.28 76.3573 54.1413 76.08 53.864 76.08C53.6933 76.08 53.48 76.176 53.224 76.368C52.2427 77.0293 51.2613 77.5413 50.28 77.904C49.2987 78.2667 48.1893 78.448 46.952 78.448C44.0933 78.448 41.9493 77.7653 40.52 76.4C39.0907 75.0347 38.376 73.072 38.376 70.512C38.376 67.9947 39.0373 65.5307 40.36 63.12C41.704 60.688 43.5493 58.7147 45.896 57.2C48.2427 55.664 50.8347 54.896 53.672 54.896C54.8667 54.896 55.8053 55.0773 56.488 55.44C57.192 55.8027 57.8427 56.3147 58.44 56.976C58.6107 57.168 58.7707 57.264 58.92 57.264C59.304 57.264 59.7307 56.624 60.2 55.344H60.872Z" fill="#191919"/>
</svg>