<svg xmlns="http://www.w3.org/2000/svg" fill="none" viewBox="33.62 23.61 58.6 61.26">
<path d="M86.2949 39.6915L56.1899 78.8629C52.494 83.6719 46.909 83.1184 45.6673 77.8201L37.3692 42.4139C36.1274 37.1156 40.0556 30.5999 44.7703 30.1377L83.1734 26.3725C88.7763 25.8232 90.6872 33.9765 86.2949 39.6915Z" stroke="#EA5959"/>
<path d="M89.3042 41.9091L59.1992 81.0804C55.5033 85.8894 49.9183 85.3359 48.6765 80.0376L40.3784 44.6314C39.1367 39.3331 43.0649 32.8174 47.7795 32.3552L86.1827 28.59C91.7856 28.0407 93.6964 36.1941 89.3042 41.9091Z" stroke="#EA5959"/>
<path d="M83.2999 37.4547L53.1974 76.5902C49.5007 81.3962 43.9118 80.8399 42.6674 75.5421L34.3536 40.1477C33.1092 34.85 37.0379 28.3379 41.7555 27.8785L80.1718 24.1374C85.778 23.5915 87.6928 31.7436 83.2999 37.4547Z" stroke="#EA5959"/>
<path d="M59.56 28.44C60.4773 28.44 61.2773 28.408 61.96 28.344L61.8 28.984C61.096 29.176 60.456 29.5173 59.88 30.008C59.3253 30.4773 58.696 31.2667 57.992 32.376L45.768 51.16L44.968 51.128L44.136 51.16L41.608 31.032C41.5227 30.328 41.3093 29.816 40.968 29.496C40.648 29.176 40.3067 29.0053 39.944 28.984L40.104 28.344C41.192 28.408 42.728 28.44 44.712 28.44C46.8667 28.44 48.4987 28.408 49.608 28.344L49.448 28.984C48.488 29.0267 47.816 29.176 47.432 29.432C47.048 29.6667 46.856 30.1573 46.856 30.904C46.856 31.224 46.8667 31.48 46.888 31.672L48.488 45.848L56.904 32.92C57.544 31.9387 57.864 31.1493 57.864 30.552C57.864 30.04 57.64 29.6667 57.192 29.432C56.744 29.176 56.0827 29.0267 55.208 28.984L55.368 28.344C56.2 28.408 57.5973 28.44 59.56 28.44ZM80.476 28.44C83.5053 28.44 85.6707 28.408 86.972 28.344C86.3747 29.9653 85.9693 31.224 85.756 32.12C85.6493 32.5893 85.5107 33.2507 85.34 34.104H84.636C84.6573 33.8267 84.668 33.4427 84.668 32.952C84.668 31.5227 84.4013 30.52 83.868 29.944C83.3347 29.368 82.4173 29.08 81.116 29.08H80.124C79.3773 29.08 78.812 29.144 78.428 29.272C78.0653 29.3787 77.7667 29.6133 77.532 29.976C77.3187 30.3387 77.1053 30.9253 76.892 31.736L74.876 39.288H76.06C77.1267 39.288 78.0227 38.9147 78.748 38.168C79.4733 37.4213 80.0387 36.5147 80.444 35.448H81.18C80.7747 36.664 80.444 37.784 80.188 38.808L79.996 39.608C79.74 40.6107 79.4307 41.9973 79.068 43.768H78.364C78.3853 43.6187 78.396 43.384 78.396 43.064C78.396 40.9733 77.5 39.928 75.708 39.928H74.716L72.668 47.608C72.476 48.2693 72.38 48.792 72.38 49.176C72.38 49.624 72.5293 49.9227 72.828 50.072C73.148 50.2 73.7027 50.264 74.492 50.264H75.676C76.828 50.264 77.7987 50.0933 78.588 49.752C79.3773 49.3893 80.0813 48.8027 80.7 47.992C81.3187 47.1813 81.948 46.0507 82.588 44.6H83.324C83.0893 45.2187 82.8547 45.9867 82.62 46.904C82.2573 48.1627 81.98 49.528 81.788 51C80.3373 50.936 77.916 50.904 74.524 50.904C69.916 50.904 66.4493 50.936 64.124 51L64.284 50.36C65.052 50.3173 65.6173 50.232 65.98 50.104C66.364 49.976 66.6733 49.7307 66.908 49.368C67.1427 49.0053 67.3667 48.4187 67.58 47.608L71.804 31.736C71.9747 31.0107 72.06 30.4987 72.06 30.2C72.06 29.7307 71.9 29.4213 71.58 29.272C71.2813 29.1227 70.7267 29.0267 69.916 28.984L70.076 28.344C72.4013 28.408 75.868 28.44 80.476 28.44ZM60.872 55.344C60.168 57.1787 59.4853 59.632 58.824 62.704H58.12C58.2907 61.7227 58.376 60.88 58.376 60.176C58.376 59.1947 58.1947 58.384 57.832 57.744C57.0853 56.3573 55.8267 55.664 54.056 55.664C52.3493 55.664 50.7173 56.4213 49.16 57.936C47.624 59.4293 46.3867 61.3813 45.448 63.792C44.5307 66.1813 44.072 68.6347 44.072 71.152C44.072 73.264 44.4453 74.8533 45.192 75.92C45.96 76.9653 47.0267 77.488 48.392 77.488C49.2027 77.488 50.0453 77.3067 50.92 76.944C51.7947 76.56 52.552 76.0373 53.192 75.376C53.7467 74.7787 54.2267 74.1173 54.632 73.392C55.0587 72.6453 55.5387 71.6213 56.072 70.32H56.776C55.7733 74.0107 55.144 76.5707 54.888 78H54.184C54.248 77.552 54.28 77.1893 54.28 76.912C54.28 76.3573 54.1413 76.08 53.864 76.08C53.6933 76.08 53.48 76.176 53.224 76.368C52.2427 77.0293 51.2613 77.5413 50.28 77.904C49.2987 78.2667 48.1893 78.448 46.952 78.448C44.0933 78.448 41.9493 77.7653 40.52 76.4C39.0907 75.0347 38.376 73.072 38.376 70.512C38.376 67.9947 39.0373 65.5307 40.36 63.12C41.704 60.688 43.5493 58.7147 45.896 57.2C48.2427 55.664 50.8347 54.896 53.672 54.896C54.8667 54.896 55.8053 55.0773 56.488 55.44C57.192 55.8027 57.8427 56.3147 58.44 56.976C58.6107 57.168 58.7707 57.264 58.92 57.264C59.304 57.264 59.7307 56.624 60.2 55.344H60.872Z" fill="#191919"/>
</svg>