<svg xmlns="http://www.w3.org/2000/svg" fill="none" viewBox="13.36 10.38 36.16 18.65">
<path d="M28.734 21.5429C26.6577 20.9403 27.1 19.113 29.4861 18.436L44.9835 14.0385C47.1351 13.4279 49.2984 14.2281 48.9859 15.5189L46.9738 23.8305C46.6613 25.1212 44.0915 26.0004 42.2193 25.457L28.734 21.5429Z" stroke="#EA5959"/>
<path d="M27.7108 20.3568C25.6208 19.7565 26.0656 17.9194 28.4643 17.2442L43.8887 12.9025C46.0382 12.2974 48.1923 13.0979 47.8805 14.3859L45.8949 22.5878C45.5831 23.8758 43.0225 24.755 41.1497 24.217L27.7108 20.3568Z" stroke="#EA5959"/>
<rect x="-0.48455" y="-0.384845" width="6.76415" height="17.5601" rx="1.5" transform="matrix(-1.06152 0.104461 0.0924198 -0.874151 22.3029 27.5345)" stroke="#EA5959"/>
<rect x="-0.484555" y="-0.384907" width="6.76372" height="17.5582" rx="1.5" transform="matrix(-1.06157 0.104429 0.0924644 -0.874244 20.5597 25.9402)" stroke="#EA5959"/>
</svg>