<?xml version="1.0" standalone="no"?>
<!DOCTYPE svg PUBLIC "-//W3C//DTD SVG 20010904//EN"
 "http://www.w3.org/TR/2001/REC-SVG-20010904/DTD/svg10.dtd">
<svg version="1.0" xmlns="http://www.w3.org/2000/svg"
 width="976.000000pt" height="976.000000pt" viewBox="0 0 976.000000 976.000000"
 preserveAspectRatio="xMidYMid meet">
<metadata>
Created by potrace 1.14, written by Peter Selinger 2001-2017
</metadata>
<g transform="translate(0.000000,976.000000) scale(0.100000,-0.100000)"
fill="#000000" stroke="none">
<path d="M7445 9744 c-176 -18 -1031 -102 -1105 -109 -30 -3 -287 -28 -570
-55 -1273 -125 -1538 -150 -1590 -155 -30 -3 -282 -28 -560 -55 -514 -50
-1278 -124 -1855 -180 -329 -32 -437 -51 -555 -100 -374 -151 -708 -526 -882
-988 -80 -215 -118 -421 -118 -647 0 -206 -2 -195 181 -970 27 -115 71 -304
99 -420 27 -115 74 -318 105 -450 31 -132 78 -334 106 -450 27 -115 71 -304
99 -420 27 -115 77 -327 110 -470 34 -143 79 -334 100 -425 22 -91 64 -269 94
-396 l54 -231 -44 -117 c-102 -268 -148 -521 -148 -816 0 -238 14 -330 75
-513 92 -280 282 -496 542 -617 45 -21 93 -41 107 -45 14 -3 36 -22 50 -43 42
-61 141 -162 205 -207 65 -47 199 -115 225 -115 9 0 45 -37 81 -82 35 -45 97
-108 137 -140 70 -56 206 -129 265 -144 17 -4 44 -27 71 -63 129 -167 313
-280 509 -311 104 -17 289 -8 391 19 200 53 406 179 581 356 55 56 224 265
436 540 190 248 825 1073 1410 1835 586 762 1530 1990 2098 2729 568 739 1060
1385 1093 1435 150 228 254 499 293 767 19 137 19 372 -1 506 -57 390 -285
706 -581 808 -57 20 -74 31 -106 72 -116 145 -225 226 -388 287 -48 18 -64 31
-103 83 -104 138 -258 244 -421 289 -82 22 -313 26 -490 8z m433 -169 c34 -8
88 -28 120 -44 56 -28 167 -109 160 -116 -3 -4 -575 -64 -803 -85 -66 -6 -345
-33 -620 -60 -275 -27 -756 -74 -1070 -105 -313 -31 -797 -79 -1075 -108 -452
-46 -527 -51 -712 -50 -194 2 -207 1 -213 -17 -4 -12 -19 -20 -43 -24 -39 -6
-360 -38 -817 -81 -148 -14 -286 -27 -305 -30 -34 -4 -34 -3 7 10 23 7 85 19
137 25 l94 12 11 44 c6 23 11 47 11 51 0 5 -262 8 -582 6 l-583 -2 290 29
c403 41 2222 219 2450 240 66 6 298 29 515 50 217 22 422 42 455 45 33 3 287
27 565 55 278 27 762 74 1075 104 314 31 584 57 600 59 82 10 275 6 333 -8z
m398 -341 c22 -6 41 -40 80 -141 21 -58 22 -63 5 -63 -9 0 -89 -7 -177 -16
-140 -14 -281 -16 -1165 -11 l-1006 6 -12 -51 c-6 -28 -10 -53 -8 -55 2 -2 44
-8 93 -14 94 -12 186 -37 191 -54 2 -6 -92 -19 -240 -32 -133 -13 -399 -38
-592 -58 -192 -19 -514 -51 -715 -70 -201 -20 -381 -38 -400 -41 -35 -5 -34
-4 48 76 69 66 101 89 185 130 122 58 147 63 442 90 127 11 406 38 620 60 215
22 491 49 615 60 124 11 351 34 505 50 154 16 384 38 510 50 127 11 372 36
545 54 311 33 435 41 476 30z m332 -147 c32 -30 27 -39 -19 -35 -40 3 -42 5
-55 48 -8 25 -14 46 -14 48 0 5 62 -39 88 -61z m-7283 -227 c68 -42 125 -127
140 -210 6 -34 4 -37 -62 -85 -288 -210 -564 -640 -657 -1023 -48 -198 -59
-301 -53 -497 6 -198 0 -167 152 -810 36 -154 88 -374 115 -490 27 -115 76
-327 110 -470 34 -143 76 -325 95 -405 18 -80 45 -194 60 -255 14 -60 39 -166
55 -235 16 -69 56 -242 89 -384 34 -143 61 -266 61 -273 0 -8 -13 -34 -30 -57
-16 -24 -51 -80 -78 -124 l-49 -81 -17 77 c-30 128 -134 574 -187 797 -118
504 -152 645 -209 890 -33 143 -80 343 -104 445 -46 194 -104 439 -206 875
-34 143 -81 343 -105 445 -25 102 -49 217 -55 255 -14 103 -12 341 5 453 71
477 377 956 749 1173 59 34 62 35 105 22 24 -7 58 -22 76 -33z m7469 -27 c69
-138 108 -330 108 -538 -1 -302 -88 -609 -252 -878 -34 -56 -366 -498 -738
-982 l-677 -880 -60 -13 c-65 -15 -495 -29 -495 -17 0 4 172 230 382 503 1329
1727 1251 1621 1354 1837 58 123 90 211 128 359 28 107 56 296 56 379 0 32 14
93 37 164 l37 113 48 0 c47 0 48 -1 72 -47z m-4803 -26 c45 -30 69 -80 69
-144 l0 -52 -52 -6 c-129 -14 -772 -78 -1068 -105 -330 -31 -580 -59 -591 -66
-14 -8 -19 30 -19 130 l0 102 263 27 c144 15 363 36 487 47 124 12 365 36 535
54 171 19 317 34 326 35 9 0 31 -9 50 -22z m4137 4 c52 -26 119 -102 148 -166
34 -74 54 -187 61 -345 7 -165 -4 -216 -81 -375 -67 -136 -137 -244 -296 -450
-225 -291 -323 -419 -363 -473 -22 -29 -42 -51 -44 -49 -11 12 116 511 188
739 27 86 49 163 49 172 0 13 -12 16 -59 16 l-60 0 -45 -97 c-131 -275 -310
-451 -507 -498 -60 -14 -319 -22 -319 -10 0 7 74 292 149 570 32 121 82 308
110 415 68 255 108 384 137 441 l23 46 88 7 c48 4 228 22 398 41 374 40 376
40 423 16z m937 -59 c206 -166 316 -447 316 -807 0 -338 -99 -661 -290 -945
-53 -79 -1145 -1507 -1178 -1540 -13 -13 -14 -10 -8 30 31 214 151 699 219
887 9 27 11 43 4 45 -5 2 127 182 295 400 167 219 323 425 345 460 201 319
304 663 304 1018 1 166 -14 276 -55 418 -13 45 -21 82 -18 82 4 0 34 -21 66
-48z m-2738 -109 c-3 -10 -8 -36 -12 -58 -3 -22 -26 -116 -51 -210 -82 -311
-145 -548 -195 -735 -70 -259 -217 -812 -309 -1160 -178 -668 -183 -687 -225
-770 -65 -129 -161 -184 -347 -197 -98 -7 -101 -9 -112 -79 l-7 -41 648 5
c553 4 646 3 637 -9 -17 -22 -571 -741 -739 -960 -1013 -1320 -1739 -2259
-1742 -2255 -3 2 5 35 16 72 23 78 20 84 -45 84 -54 0 -67 -13 -99 -95 -52
-135 -205 -431 -273 -530 -126 -181 -238 -287 -407 -384 -95 -55 -237 -104
-345 -121 -36 -6 -77 -13 -92 -15 -26 -4 -27 -2 -43 68 -9 40 -39 167 -66 282
-27 116 -70 298 -95 405 -25 107 -70 296 -99 420 -208 887 -225 960 -225 980
0 9 20 63 45 119 157 353 312 589 530 806 197 196 363 297 585 356 115 31 300
31 411 1 234 -63 388 -222 456 -472 24 -90 24 -353 0 -502 -10 -60 -15 -112
-12 -118 7 -11 94 -13 111 -2 7 4 19 45 29 92 52 263 204 812 274 995 17 44
31 83 31 87 0 5 -26 8 -58 8 l-58 0 -43 -97 c-97 -218 -144 -247 -241 -147
-134 137 -317 252 -460 289 -86 22 -397 32 -539 16 -429 -47 -823 -209 -1186
-490 -43 -33 -82 -58 -85 -53 -4 4 -12 34 -19 67 -7 33 -35 152 -61 265 -27
113 -74 313 -105 445 -31 132 -78 337 -106 455 -28 118 -73 307 -99 420 -27
113 -72 304 -101 425 l-54 220 0 215 c0 243 8 297 77 510 38 117 152 370 167
370 4 0 21 -118 40 -262 18 -145 51 -402 73 -573 22 -170 50 -400 63 -510 40
-341 106 -859 113 -883 7 -23 9 -24 141 -24 l134 -1 175 269 c96 148 261 402
367 564 105 162 293 450 416 640 124 190 326 500 450 690 123 189 307 473 409
630 l186 285 164 16 c173 18 275 28 1105 109 281 28 593 59 695 69 102 10 191
19 198 20 8 0 11 -6 9 -16z m-2356 -268 c-17 -30 -124 -198 -238 -373 -113
-174 -293 -450 -398 -612 -106 -162 -303 -466 -440 -675 -136 -209 -260 -399
-274 -422 -14 -23 -28 -43 -31 -43 -6 0 -54 403 -100 833 -16 148 -43 382 -59
520 -17 139 -37 322 -46 407 -8 85 -18 176 -21 201 -5 39 -3 47 12 53 24 9
208 31 439 51 99 8 356 33 570 55 436 45 559 57 593 59 l24 1 -31 -55z m-2431
-305 l22 -175 -66 -100 c-179 -266 -297 -602 -327 -924 -17 -190 -2 -320 77
-656 36 -154 85 -365 109 -470 24 -104 60 -257 79 -340 45 -190 108 -456 187
-795 34 -146 76 -324 94 -396 l32 -130 -88 -92 c-49 -51 -90 -92 -92 -92 -3 0
-7 19 -11 43 -4 23 -31 143 -61 267 -29 124 -76 324 -105 445 -28 121 -74 317
-101 435 -132 559 -274 1164 -396 1685 -26 111 -28 136 -28 320 0 215 8 269
66 472 83 294 280 612 494 796 l70 60 12 -89 c6 -49 21 -168 33 -264z m5429
-920 c106 -11 175 -38 234 -90 72 -63 120 -177 133 -312 l6 -74 -422 -550
c-232 -302 -428 -555 -435 -562 -10 -11 -17 -11 -34 -3 -35 19 -51 64 -51 140
0 71 25 179 143 621 77 284 158 591 188 705 16 61 31 116 34 123 5 15 74 15
204 2z m761 -1242 c-16 -24 -46 -61 -66 -83 -20 -22 -8 -3 26 43 64 84 95 116
40 40z m-626 -520 c-4 -7 -285 -373 -623 -813 -338 -440 -681 -885 -761 -990
-80 -104 -418 -543 -750 -975 -332 -432 -758 -985 -946 -1230 -364 -474 -464
-586 -614 -687 -99 -66 -161 -97 -273 -135 -77 -26 -112 -32 -213 -36 l-122
-5 -18 27 c-25 39 -84 200 -76 207 4 3 30 14 57 24 221 80 448 257 633 493 80
102 81 103 89 75 9 -33 9 -127 -1 -200 l-7 -53 64 0 64 0 17 88 c9 48 42 191
73 318 l56 231 949 1234 c523 679 1157 1505 1411 1836 l462 602 268 0 c212 1
267 -2 261 -11z m713 4 l41 -7 -112 -145 c-62 -80 -890 -1157 -1841 -2395
-1803 -2345 -1826 -2375 -1986 -2487 -188 -133 -347 -188 -539 -189 -161 -1
-304 48 -411 139 l-42 36 94 14 c251 35 471 154 690 372 132 131 80 65 2934
3780 340 443 633 824 652 848 l34 42 222 -1 c122 0 241 -4 264 -7z m-5681
-2977 c31 -132 78 -332 104 -445 27 -113 73 -313 104 -445 31 -132 61 -258 66
-280 5 -21 7 -41 5 -43 -8 -8 -134 40 -185 71 l-53 32 -53 225 c-246 1035
-229 951 -215 1060 11 93 66 381 78 410 6 15 33 -92 149 -585z m948 -1239
c-112 -100 -214 -169 -317 -216 -107 -48 -102 -48 -116 16 -7 30 -11 58 -8 61
3 2 36 12 74 20 80 18 300 102 358 137 60 36 63 31 9 -18z m-1027 -144 c6 -4
16 -20 22 -35 10 -25 9 -27 -7 -18 -9 6 -30 21 -47 35 l-30 25 25 0 c14 1 30
-3 37 -7z m420 -71 c8 -30 12 -60 9 -67 -9 -23 -180 -14 -189 10 -3 6 -14 35
-26 64 l-21 53 107 -3 107 -3 13 -54z m74 -299 c20 -59 20 -59 -60 2 l-55 41
35 6 c55 10 61 7 80 -49z"/>
</g>
</svg>
